<svg width="60" height="55" viewBox="0 0 60 55" fill="none" xmlns="http://www.w3.org/2000/svg">
<path d="M51.4286 46.5385H47.1429C44.7793 46.5385 42.8571 44.641 42.8571 42.3077V4.23077C42.8571 1.8975 44.7793 0 47.1429 0H51.4286C53.7921 0 55.7143 1.8975 55.7143 4.23077V42.3077C55.7143 44.641 53.7921 46.5385 51.4286 46.5385ZM47.1429 4.23077V42.3077H51.4286V4.23077H47.1429ZM34.2857 46.5385H30C27.6364 46.5385 25.7143 44.641 25.7143 42.3077V21.1538C25.7143 18.8206 27.6364 16.9231 30 16.9231H34.2857C36.6493 16.9231 38.5714 18.8206 38.5714 21.1538V42.3077C38.5714 44.641 36.6493 46.5385 34.2857 46.5385ZM30 21.1538V42.3077H34.2857V21.1538H30ZM17.1429 46.5385H12.8571C10.4936 46.5385 8.57143 44.641 8.57143 42.3077V12.6923C8.57143 10.359 10.4936 8.46154 12.8571 8.46154H17.1429C19.5064 8.46154 21.4286 10.359 21.4286 12.6923V42.3077C21.4286 44.641 19.5064 46.5385 17.1429 46.5385ZM12.8571 12.6923V42.3077H17.1429V12.6923H12.8571ZM60 52.8846C60 51.7162 59.0407 50.7692 57.8571 50.7692H6.42857C5.24714 50.7692 4.28571 49.8201 4.28571 48.6538V2.11538C4.28571 0.946987 3.32643 0 2.14286 0C0.959286 0 0 0.946987 0 2.11538V48.6538C0 52.1534 2.88357 55 6.42857 55H57.8571C59.0407 55 60 54.053 60 52.8846Z" fill="black"/>
</svg>
